<svg width="327" height="130" viewBox="0 0 327 130" fill="#fff" xmlns="http://www.w3.org/2000/svg">
<path d="M63.8631 51.3055L63.8678 51.3087C70.6296 55.9524 78.01 60.743 85.4825 64.3737C92.9381 67.9961 100.641 70.5426 108.03 70.5426C116.134 70.5426 122.054 68.0902 126.012 64.2598C126.225 64.0542 126.431 63.8451 126.631 63.6327C124.122 75.4692 118.234 86.4312 109.548 95.1178C97.7329 106.933 81.7086 113.57 65 113.57C48.2914 113.57 32.2671 106.933 20.4523 95.1178C8.63748 83.303 2 67.2787 2 50.5701V49.6601C2 39.717 10.0557 28.7476 21.97 28.7476C27.8786 28.7476 34.6528 31.7387 41.9538 36.2049C46.8697 39.2121 51.8171 42.7495 56.747 46.2744C59.1249 47.9746 61.4988 49.672 63.8631 51.3055Z" stroke="black" stroke-width="4"/>
<path d="M66.1322 51.308L66.1369 51.3048C68.4764 49.6884 70.8257 48.01 73.1793 46.3287C78.1332 42.7896 83.1057 39.2372 88.0448 36.2213C95.3452 31.7635 102.12 28.7794 108.03 28.7794V26.7794L108.035 28.7794C119.975 28.7502 128 39.7127 128 49.6594V50.5694C128 67.278 121.363 83.3023 109.548 95.1171C97.7329 106.932 81.7086 113.569 65 113.569C48.2914 113.569 32.2671 106.932 20.4523 95.1171C11.761 86.4258 5.87142 75.4566 3.36478 63.6127C3.56683 63.8267 3.77511 64.0374 3.98968 64.2445C7.94868 68.0664 13.8685 70.5094 21.97 70.5094C29.3577 70.5094 37.0598 67.9719 44.5159 64.3575C51.9888 60.7349 59.3694 55.9524 66.1322 51.308Z" stroke="black" stroke-width="4"/>
<path d="M126.635 63.6126C124.129 75.4564 118.239 86.4256 109.548 95.1169C97.7329 106.932 81.7086 113.569 65 113.569C48.2914 113.569 32.2671 106.932 20.4523 95.1169C11.7657 86.4304 5.8778 75.4683 3.36885 63.6318C3.5691 63.8442 3.77544 64.0533 3.98796 64.2589C7.94635 68.0893 13.8665 70.5417 21.97 70.5417C29.359 70.5417 37.0619 67.9952 44.5175 64.3728C51.575 60.9437 58.5504 56.48 65.0001 52.0826C71.4506 56.4798 78.4262 60.9359 85.4841 64.3573C92.9402 67.9717 100.642 70.5092 108.03 70.5092C116.132 70.5092 122.051 68.0662 126.01 64.2443C126.225 64.0372 126.433 63.8265 126.635 63.6126Z" stroke="black" stroke-width="4"/>
<path d="M176.081 47.5117H170.326C170.221 46.7672 170.007 46.1058 169.683 45.5277C169.358 44.9408 168.942 44.4415 168.434 44.0298C167.926 43.6181 167.339 43.3028 166.674 43.0838C166.017 42.8648 165.303 42.7553 164.532 42.7553C163.139 42.7553 161.926 43.1013 160.892 43.7933C159.859 44.4766 159.057 45.4751 158.488 46.7891C157.919 48.0942 157.634 49.6797 157.634 51.5455C157.634 53.4638 157.919 55.0755 158.488 56.3807C159.066 57.6858 159.872 58.6713 160.906 59.337C161.939 60.0027 163.135 60.3356 164.493 60.3356C165.255 60.3356 165.96 60.2348 166.608 60.0334C167.265 59.8319 167.847 59.5385 168.355 59.1531C168.864 58.7589 169.284 58.2815 169.617 57.7209C169.958 57.1603 170.195 56.5208 170.326 55.8026L176.081 55.8288C175.932 57.0639 175.56 58.2552 174.964 59.4027C174.378 60.5414 173.585 61.5619 172.586 62.4641C171.596 63.3576 170.414 64.0671 169.039 64.5927C167.672 65.1095 166.126 65.3679 164.401 65.3679C162 65.3679 159.854 64.8248 157.962 63.7386C156.079 62.6525 154.59 61.0801 153.495 59.0217C152.409 56.9632 151.866 54.4711 151.866 51.5455C151.866 48.611 152.418 46.1146 153.521 44.0561C154.625 41.9976 156.123 40.4297 158.015 39.3523C159.907 38.2661 162.036 37.723 164.401 37.723C165.96 37.723 167.405 37.942 168.737 38.38C170.077 38.8179 171.264 39.4574 172.297 40.2983C173.331 41.1304 174.172 42.1509 174.82 43.3597C175.477 44.5685 175.897 45.9525 176.081 47.5117ZM184.663 65H178.567L187.856 38.0909H195.188L204.464 65H198.368L191.627 44.2401H191.417L184.663 65ZM184.282 54.4229H198.683V58.864H184.282V54.4229ZM208.073 65V38.0909H218.689C220.722 38.0909 222.456 38.4544 223.893 39.1815C225.338 39.8997 226.437 40.9202 227.19 42.2429C227.953 43.5568 228.334 45.1029 228.334 46.881C228.334 48.668 227.948 50.2053 227.177 51.4929C226.406 52.7718 225.29 53.7528 223.827 54.4361C222.373 55.1193 220.612 55.4609 218.545 55.4609H211.437V50.8885H217.625C218.711 50.8885 219.614 50.7396 220.332 50.4418C221.05 50.1439 221.584 49.6972 221.935 49.1016C222.294 48.5059 222.473 47.7657 222.473 46.881C222.473 45.9876 222.294 45.2343 221.935 44.6211C221.584 44.0079 221.046 43.5437 220.319 43.2283C219.6 42.9042 218.694 42.7422 217.599 42.7422H213.762V65H208.073ZM222.605 52.7543L229.293 65H223.012L216.469 52.7543H222.605ZM232.724 65V38.0909H243.498C245.478 38.0909 247.129 38.3844 248.452 38.9712C249.774 39.5581 250.769 40.3728 251.434 41.4151C252.1 42.4487 252.433 43.64 252.433 44.989C252.433 46.0401 252.223 46.9643 251.802 47.7614C251.382 48.5497 250.804 49.1979 250.068 49.706C249.341 50.2053 248.509 50.56 247.571 50.7702V51.033C248.596 51.0768 249.555 51.3659 250.449 51.9002C251.351 52.4345 252.083 53.1835 252.643 54.147C253.204 55.1018 253.484 56.2405 253.484 57.5632C253.484 58.991 253.129 60.2655 252.42 61.3867C251.719 62.4992 250.681 63.3795 249.306 64.0277C247.931 64.6759 246.236 65 244.221 65H232.724ZM238.413 60.3487H243.052C244.637 60.3487 245.793 60.0465 246.52 59.4421C247.247 58.829 247.611 58.0143 247.611 56.9982C247.611 56.2537 247.431 55.5967 247.072 55.0273C246.713 54.458 246.201 54.0112 245.535 53.6871C244.878 53.363 244.094 53.201 243.183 53.201H238.413V60.3487ZM238.413 49.3512H242.631C243.411 49.3512 244.103 49.2154 244.707 48.9439C245.32 48.6636 245.802 48.2694 246.152 47.7614C246.512 47.2533 246.691 46.6445 246.691 45.935C246.691 44.9627 246.345 44.1787 245.653 43.5831C244.97 42.9875 243.998 42.6896 242.736 42.6896H238.413V49.3512ZM282.284 51.5455C282.284 54.4799 281.728 56.9763 280.615 59.0348C279.512 61.0933 278.005 62.6656 276.096 63.7518C274.195 64.8292 272.057 65.3679 269.684 65.3679C267.292 65.3679 265.146 64.8248 263.245 63.7386C261.345 62.6525 259.842 61.0801 258.739 59.0217C257.635 56.9632 257.083 54.4711 257.083 51.5455C257.083 48.611 257.635 46.1146 258.739 44.0561C259.842 41.9976 261.345 40.4297 263.245 39.3523C265.146 38.2661 267.292 37.723 269.684 37.723C272.057 37.723 274.195 38.2661 276.096 39.3523C278.005 40.4297 279.512 41.9976 280.615 44.0561C281.728 46.1146 282.284 48.611 282.284 51.5455ZM276.516 51.5455C276.516 49.6446 276.231 48.0417 275.662 46.7365C275.101 45.4313 274.309 44.4415 273.284 43.767C272.259 43.0926 271.059 42.7553 269.684 42.7553C268.308 42.7553 267.108 43.0926 266.083 43.767C265.059 44.4415 264.261 45.4313 263.692 46.7365C263.131 48.0417 262.851 49.6446 262.851 51.5455C262.851 53.4463 263.131 55.0492 263.692 56.3544C264.261 57.6596 265.059 58.6494 266.083 59.3239C267.108 59.9983 268.308 60.3356 269.684 60.3356C271.059 60.3356 272.259 59.9983 273.284 59.3239C274.309 58.6494 275.101 57.6596 275.662 56.3544C276.231 55.0492 276.516 53.4463 276.516 51.5455ZM309.376 38.0909V65H304.462L292.755 48.0636H292.558V65H286.868V38.0909H291.861L303.476 55.0142H303.713V38.0909H309.376ZM174.846 73.0909V100H169.932L158.225 83.0636H158.028V100H152.339V73.0909H157.332L168.947 90.0142H169.183V73.0909H174.846ZM179.917 100V73.0909H198.049V77.7816H185.606V84.1935H197.116V88.8842H185.606V95.3093H198.101V100H179.917ZM219.563 73.0909H225.252V90.5661C225.252 92.5282 224.784 94.245 223.847 95.7166C222.918 97.1882 221.617 98.3357 219.944 99.1591C218.271 99.9737 216.322 100.381 214.097 100.381C211.864 100.381 209.91 99.9737 208.237 99.1591C206.564 98.3357 205.263 97.1882 204.335 95.7166C203.406 94.245 202.942 92.5282 202.942 90.5661V73.0909H208.631V90.0799C208.631 91.1048 208.855 92.0157 209.301 92.8129C209.757 93.61 210.396 94.2363 211.22 94.6918C212.043 95.1473 213.002 95.375 214.097 95.375C215.201 95.375 216.16 95.1473 216.975 94.6918C217.798 94.2363 218.433 93.61 218.88 92.8129C219.335 92.0157 219.563 91.1048 219.563 90.0799V73.0909ZM229.278 77.7816V73.0909H251.379V77.7816H243.14V100H237.517V77.7816H229.278ZM255.388 100V73.0909H266.005C268.037 73.0909 269.771 73.4544 271.208 74.1815C272.653 74.8997 273.752 75.9202 274.506 77.2429C275.268 78.5568 275.649 80.1029 275.649 81.881C275.649 83.668 275.263 85.2053 274.493 86.4929C273.722 87.7718 272.605 88.7528 271.142 89.4361C269.688 90.1193 267.927 90.4609 265.86 90.4609H258.752V85.8885H264.94C266.026 85.8885 266.929 85.7396 267.647 85.4418C268.365 85.1439 268.9 84.6972 269.25 84.1016C269.609 83.5059 269.789 82.7657 269.789 81.881C269.789 80.9876 269.609 80.2343 269.25 79.6211C268.9 79.0079 268.361 78.5437 267.634 78.2283C266.916 77.9042 266.009 77.7422 264.914 77.7422H261.077V100H255.388ZM269.92 87.7543L276.608 100H270.327L263.784 87.7543H269.92ZM284.678 100H278.581L287.87 73.0909H295.202L304.478 100H298.382L291.641 79.2401H291.431L284.678 100ZM284.296 89.4229H298.697V93.864H284.296V89.4229ZM308.087 100V73.0909H313.776V95.3093H325.313V100H308.087Z" fill="#fff"/>
</svg>
